<?xml version="1.0" standalone="no"?>
<!DOCTYPE svg PUBLIC "-//W3C//DTD SVG 20010904//EN"
 "http://www.w3.org/TR/2001/REC-SVG-20010904/DTD/svg10.dtd">
<svg version="1.0" xmlns="http://www.w3.org/2000/svg"
 width="4184.000000pt" height="4184.000000pt" viewBox="0 0 4184.000000 4184.000000"
 preserveAspectRatio="xMidYMid meet">
<metadata>
Created by potrace 1.14, written by Peter Selinger 2001-2017
</metadata>
<g transform="translate(0.000000,4184.000000) scale(0.100000,-0.100000)"
fill="#000000" stroke="none">
<path d="M4880 29405 l0 -2625 2065 0 2065 0 0 -6470 0 -6470 2680 0 2680 0 0
6470 0 6470 2055 0 2055 0 0 2625 0 2625 -6800 0 -6800 0 0 -2625z"/>
<path d="M21750 25071 c0 -4 -75 -11 -167 -15 -93 -4 -169 -12 -171 -17 -2 -5
-33 -9 -68 -9 -36 0 -64 -4 -64 -10 0 -6 -27 -10 -60 -10 -33 0 -60 -4 -60
-10 0 -5 -22 -10 -50 -10 -27 0 -50 -4 -50 -10 0 -5 -20 -10 -45 -10 -33 0
-45 -4 -45 -15 0 -10 -11 -15 -35 -15 -19 0 -35 -4 -35 -10 0 -5 -18 -10 -40
-10 -22 0 -40 -4 -40 -10 0 -5 -16 -10 -35 -10 -19 0 -35 -4 -35 -10 0 -5 -16
-10 -35 -10 -19 0 -35 -4 -35 -10 0 -5 -11 -10 -25 -10 -14 0 -25 -4 -25 -10
0 -5 -18 -10 -40 -10 -22 0 -40 -4 -40 -10 0 -5 -11 -10 -25 -10 -14 0 -25 -4
-25 -10 0 -5 -9 -10 -20 -10 -11 0 -20 -4 -20 -10 0 -5 -16 -10 -35 -10 -19 0
-35 -4 -35 -10 0 -5 -11 -10 -25 -10 -14 0 -25 -4 -25 -10 0 -5 -7 -10 -15
-10 -8 0 -15 -7 -15 -15 0 -10 -10 -15 -30 -15 -38 0 -120 -22 -120 -32 0 -4
-11 -8 -25 -8 -16 0 -25 -6 -25 -15 0 -8 -7 -15 -15 -15 -8 0 -15 -4 -15 -10
0 -5 -9 -10 -20 -10 -11 0 -20 -4 -20 -10 0 -5 -11 -10 -25 -10 -15 0 -25 -6
-25 -14 0 -9 -18 -16 -50 -20 -27 -4 -50 -11 -50 -16 0 -6 -11 -10 -25 -10
-16 0 -25 -6 -25 -15 0 -8 -9 -15 -20 -15 -11 0 -20 -4 -20 -10 0 -5 -7 -10
-15 -10 -9 0 -18 -7 -21 -15 -4 -8 -17 -15 -30 -15 -15 0 -24 -6 -24 -15 0 -8
-7 -15 -15 -15 -8 0 -15 -4 -15 -10 0 -5 -7 -10 -15 -10 -8 0 -15 -4 -15 -10
0 -5 -9 -10 -20 -10 -11 0 -20 -7 -20 -15 0 -8 -9 -15 -20 -15 -11 0 -20 -4
-20 -10 0 -5 -7 -10 -16 -10 -9 0 -18 -9 -21 -19 -3 -12 -17 -21 -39 -26 -19
-3 -34 -10 -34 -15 0 -6 -9 -10 -20 -10 -11 0 -20 -4 -20 -10 0 -5 -9 -10 -20
-10 -11 0 -20 -5 -20 -11 0 -18 -27 -39 -60 -45 -21 -5 -32 -14 -36 -30 -3
-13 -12 -24 -20 -24 -8 0 -14 -4 -14 -10 0 -5 -7 -10 -15 -10 -9 0 -18 -7 -21
-15 -4 -8 -11 -15 -18 -15 -6 0 -18 -9 -26 -20 -8 -11 -25 -20 -37 -20 -16 0
-25 -8 -29 -25 -3 -14 -12 -25 -20 -25 -8 0 -14 -4 -14 -10 0 -5 -9 -10 -20
-10 -13 0 -22 -9 -26 -25 -3 -14 -13 -25 -20 -25 -8 0 -17 -7 -20 -15 -4 -8
-13 -15 -21 -15 -16 0 -53 -36 -53 -52 0 -4 -7 -8 -16 -8 -15 0 -44 -23 -44
-35 0 -4 -16 -22 -35 -41 -19 -18 -35 -36 -35 -40 0 -12 -29 -33 -54 -40 -19
-4 -26 -13 -26 -30 0 -13 -6 -24 -13 -24 -18 0 -57 -34 -57 -49 0 -6 -9 -11
-20 -11 -11 0 -20 -7 -20 -15 0 -8 -6 -15 -14 -15 -8 0 -17 -11 -20 -25 -4
-14 -13 -25 -21 -25 -7 0 -17 -9 -20 -20 -3 -11 -13 -20 -21 -20 -8 0 -14 -10
-14 -24 0 -18 -6 -25 -22 -28 -15 -2 -24 -11 -26 -25 -2 -13 -10 -23 -17 -23
-8 0 -17 -9 -20 -20 -3 -11 -10 -20 -15 -20 -4 0 -11 -11 -14 -25 -4 -16 -13
-25 -26 -25 -13 0 -22 -9 -26 -25 -3 -14 -12 -25 -20 -25 -8 0 -14 -7 -14 -15
0 -9 -7 -18 -15 -21 -8 -3 -17 -14 -20 -25 -4 -10 -12 -19 -20 -19 -14 0 -25
-21 -25 -51 0 -11 -7 -19 -16 -19 -22 0 -44 -25 -44 -50 0 -14 -8 -24 -21 -27
-12 -4 -22 -17 -26 -34 -3 -16 -10 -29 -15 -29 -15 0 -38 -27 -38 -45 0 -9
-13 -30 -30 -45 -16 -15 -30 -34 -30 -40 0 -7 -9 -20 -19 -29 -10 -9 -21 -28
-23 -41 -2 -16 -10 -26 -24 -28 -15 -2 -24 -12 -28 -33 -3 -17 -12 -29 -21
-29 -10 0 -17 -14 -21 -40 -4 -22 -10 -40 -15 -40 -5 0 -9 -9 -9 -19 0 -30
-11 -51 -26 -51 -8 0 -14 -9 -14 -20 0 -11 -4 -20 -10 -20 -5 0 -10 -7 -10
-15 0 -8 -7 -15 -15 -15 -10 0 -15 -11 -15 -35 0 -23 -5 -35 -14 -35 -9 0 -16
-17 -20 -45 -5 -29 -12 -45 -22 -45 -8 0 -14 -7 -14 -15 0 -8 -6 -15 -14 -15
-9 0 -17 -15 -21 -40 -4 -23 -12 -40 -20 -40 -8 0 -16 -17 -20 -40 -4 -25 -12
-40 -21 -40 -9 0 -14 -11 -14 -27 0 -43 -11 -73 -26 -73 -10 0 -14 -13 -14
-40 0 -33 -3 -40 -20 -40 -15 0 -20 -7 -20 -25 0 -14 -4 -25 -10 -25 -5 0 -10
-16 -10 -35 0 -19 -4 -35 -10 -35 -5 0 -10 -13 -10 -30 0 -16 -4 -30 -10 -30
-5 0 -12 -27 -16 -60 -4 -33 -11 -60 -15 -60 -5 0 -9 -11 -9 -25 0 -18 -5 -25
-19 -25 -16 0 -20 -10 -26 -65 -5 -45 -12 -65 -21 -65 -10 0 -14 -16 -14 -60
0 -45 -4 -60 -14 -60 -10 0 -16 -23 -21 -90 -5 -63 -11 -90 -20 -90 -9 0 -15
-26 -20 -85 -5 -58 -11 -85 -19 -85 -13 0 -26 -99 -26 -192 0 -27 -4 -38 -15
-38 -12 0 -15 -14 -15 -65 0 -49 -3 -65 -14 -65 -11 0 -15 -37 -21 -185 -5
-135 -11 -185 -20 -185 -22 0 -25 -631 -25 -4692 l0 -3958 2480 0 2479 0 3
3775 c2 2795 6 3778 14 3783 7 4 14 62 19 150 7 128 9 142 25 142 16 0 20 12
26 80 5 58 10 80 20 80 9 0 14 11 14 31 0 17 7 37 15 45 8 9 15 29 15 45 0 18
5 29 14 29 9 0 16 17 21 50 6 40 11 50 26 50 10 0 19 6 19 14 0 8 6 21 13 28
8 7 17 26 21 41 3 15 13 27 21 27 8 0 17 14 21 35 4 26 11 35 25 35 20 0 109
82 109 100 0 5 7 10 15 10 8 0 15 4 15 9 0 8 25 12 148 28 27 3 42 10 42 19 0
11 31 14 170 14 131 0 170 -3 170 -13 0 -12 120 -37 177 -37 16 0 25 -8 29
-25 3 -14 13 -25 21 -25 8 0 28 -13 43 -30 15 -16 35 -30 44 -30 9 0 16 -4 16
-10 0 -5 6 -10 14 -10 8 0 17 -15 20 -35 4 -21 13 -35 22 -35 8 0 17 -13 21
-30 3 -16 9 -30 14 -30 5 0 12 -18 15 -40 5 -30 11 -40 25 -40 13 0 19 -7 19
-24 0 -43 12 -86 25 -86 9 0 15 -28 20 -87 4 -49 11 -90 16 -93 4 -3 11 -72
15 -153 5 -113 10 -147 21 -147 11 0 13 -622 13 -3820 l0 -3820 2480 0 2480 0
0 3473 c0 3609 3 4087 27 4087 10 0 13 19 13 75 0 60 3 75 15 75 12 0 15 18
15 105 0 96 2 105 19 105 16 0 19 11 25 80 6 60 11 80 22 80 8 0 17 13 21 30
3 17 9 30 13 30 4 0 10 27 14 60 6 51 10 60 26 60 11 0 20 6 20 13 0 7 9 19
20 27 10 8 22 27 25 42 4 15 11 28 16 28 5 0 9 5 9 10 0 13 66 80 79 80 5 0
13 9 16 20 3 11 13 20 21 20 8 0 14 5 14 10 0 6 9 10 20 10 11 0 20 7 20 15 0
8 9 15 20 15 11 0 20 4 20 8 0 10 89 32 126 32 15 0 24 6 24 15 0 13 28 15
190 15 151 0 190 -3 190 -13 0 -9 26 -17 78 -25 42 -7 79 -17 80 -22 2 -6 15
-10 28 -10 19 0 24 -5 24 -25 0 -18 5 -25 20 -25 11 0 20 -4 20 -10 0 -5 6
-10 14 -10 8 0 18 -9 21 -20 3 -11 12 -20 20 -20 14 0 25 -21 25 -51 0 -10 6
-19 14 -19 8 0 16 -7 20 -15 3 -8 12 -15 20 -15 10 0 17 -17 21 -55 4 -30 11
-55 16 -55 5 0 9 -9 9 -20 0 -11 7 -20 15 -20 10 0 15 -11 15 -35 0 -19 5 -35
10 -35 6 0 10 -13 10 -30 0 -19 5 -30 14 -30 10 0 15 -26 20 -102 4 -61 12
-106 19 -110 9 -6 13 -913 15 -3928 l3 -3920 2479 0 2480 0 0 4260 c0 3780 -2
4260 -15 4260 -12 0 -15 19 -15 110 0 67 -4 110 -10 110 -6 0 -10 38 -10 95 0
78 -3 95 -15 95 -12 0 -15 13 -15 60 0 47 -3 60 -15 60 -13 0 -15 21 -15 130
0 103 -3 130 -14 130 -10 0 -15 28 -21 120 -6 107 -9 120 -25 120 -16 0 -20
11 -26 80 -3 44 -10 80 -15 80 -4 0 -11 36 -15 80 -4 53 -11 80 -19 80 -8 0
-15 27 -19 80 -5 55 -11 80 -20 80 -9 0 -16 21 -20 60 -5 43 -11 60 -21 60
-10 0 -15 10 -15 30 0 17 -4 30 -10 30 -5 0 -10 11 -10 25 0 14 -4 25 -10 25
-5 0 -10 16 -10 35 0 19 -4 35 -10 35 -5 0 -10 11 -10 25 0 14 -4 25 -9 25 -5
0 -13 29 -16 65 -6 53 -11 65 -25 65 -18 0 -30 35 -30 86 0 14 -6 24 -15 24
-8 0 -17 14 -21 35 -3 19 -10 35 -15 35 -5 0 -9 7 -9 15 0 8 -4 15 -10 15 -5
0 -10 11 -10 25 0 14 -4 25 -10 25 -5 0 -10 16 -10 35 0 28 -4 35 -19 35 -14
0 -21 10 -25 35 -4 19 -11 35 -16 35 -5 0 -12 20 -16 45 -4 28 -11 45 -20 45
-8 0 -14 9 -14 19 0 30 -11 51 -26 51 -8 0 -14 7 -14 15 0 8 -4 15 -10 15 -5
0 -10 9 -10 19 0 10 -7 21 -15 25 -8 3 -15 17 -15 31 0 15 -6 25 -14 25 -9 0
-17 15 -21 40 -4 23 -12 40 -20 40 -14 0 -25 22 -25 51 0 10 -6 19 -14 19 -8
0 -17 14 -21 30 -4 17 -13 30 -21 30 -7 0 -16 11 -20 25 -3 14 -12 25 -20 25
-8 0 -14 10 -14 25 0 16 -6 25 -15 25 -9 0 -15 9 -15 25 0 14 -6 25 -13 25 -7
0 -19 9 -27 20 -8 11 -20 20 -27 20 -7 0 -13 9 -13 20 0 11 -6 20 -14 20 -15
0 -26 21 -26 51 0 10 -7 19 -15 19 -8 0 -15 5 -15 10 0 6 -7 10 -15 10 -8 0
-15 7 -15 15 0 8 -20 35 -45 59 -25 25 -45 50 -45 56 0 5 -4 10 -10 10 -5 0
-10 7 -10 15 0 8 -6 15 -14 15 -8 0 -18 9 -21 20 -3 11 -13 20 -20 20 -8 0
-17 11 -21 25 -3 14 -12 25 -20 25 -8 0 -14 7 -14 15 0 8 -9 15 -19 15 -12 0
-21 9 -25 25 -4 14 -12 25 -19 25 -17 0 -43 32 -51 63 -3 15 -13 27 -21 27 -8
0 -15 7 -15 15 0 9 -9 15 -24 15 -24 0 -56 23 -56 41 0 5 -6 9 -14 9 -8 0 -17
11 -20 25 -4 14 -13 25 -21 25 -8 0 -15 5 -15 10 0 6 -7 10 -15 10 -9 0 -31
16 -51 35 -19 19 -39 35 -44 35 -6 0 -10 5 -10 11 0 14 -25 39 -39 39 -6 0
-11 5 -11 10 0 6 -9 10 -20 10 -11 0 -20 6 -20 13 0 8 -9 24 -20 37 -11 13
-20 27 -20 32 0 4 -7 8 -15 8 -8 0 -15 5 -15 10 0 6 -11 10 -25 10 -14 0 -28
7 -31 15 -4 8 -16 15 -29 15 -16 0 -25 7 -29 25 -5 18 -13 25 -30 25 -14 0
-31 7 -40 15 -8 8 -21 15 -29 15 -8 0 -18 11 -21 25 -4 14 -13 25 -21 25 -8 0
-15 4 -15 9 0 5 -13 11 -30 15 -18 3 -30 12 -30 21 0 8 -9 15 -19 15 -11 0
-26 7 -35 15 -8 8 -19 15 -25 15 -6 0 -11 7 -11 15 0 10 -10 15 -29 15 -21 0
-32 6 -36 20 -3 11 -13 20 -21 20 -8 0 -14 7 -14 15 0 10 -11 15 -35 15 -19 0
-35 4 -35 10 0 5 -16 12 -35 16 -19 3 -35 10 -35 15 0 5 -9 9 -20 9 -11 0 -20
7 -20 15 0 8 -9 15 -20 15 -11 0 -20 4 -20 9 0 5 -18 12 -40 16 -25 4 -40 12
-40 21 0 8 -8 14 -18 14 -10 0 -24 9 -32 20 -8 11 -22 20 -32 20 -10 0 -18 7
-18 15 0 9 -9 15 -25 15 -14 0 -25 4 -25 9 0 4 -20 11 -45 15 -25 3 -65 9 -90
12 -28 4 -45 12 -45 20 0 8 -7 14 -15 14 -8 0 -15 5 -15 10 0 6 -13 10 -30 10
-16 0 -30 5 -30 10 0 6 -13 10 -30 10 -16 0 -30 5 -30 10 0 6 -9 10 -20 10
-11 0 -20 5 -20 10 0 6 -13 10 -30 10 -16 0 -30 5 -30 10 0 6 -13 10 -30 10
-16 0 -30 5 -30 10 0 6 -16 10 -35 10 -19 0 -35 5 -35 10 0 6 -22 10 -50 10
-27 0 -50 5 -50 10 0 6 -18 10 -40 10 -22 0 -40 5 -40 10 0 6 -13 10 -30 10
-16 0 -30 5 -30 10 0 6 -18 10 -40 10 -29 0 -40 4 -40 15 0 10 -11 15 -35 15
-19 0 -35 5 -35 10 0 6 -27 10 -60 10 -33 0 -60 4 -60 10 0 6 -30 10 -70 10
-40 0 -70 4 -70 10 0 6 -30 10 -69 10 -38 0 -71 4 -73 10 -2 5 -83 13 -190 16
-104 4 -188 11 -188 16 0 4 -173 8 -385 8 -212 0 -385 -4 -385 -8 0 -5 -73
-12 -162 -15 -100 -4 -164 -10 -166 -16 -2 -6 -28 -11 -58 -11 -30 0 -54 -4
-54 -10 0 -5 -25 -10 -55 -10 -30 0 -55 -4 -55 -10 0 -5 -25 -10 -55 -10 -30
0 -55 -4 -55 -10 0 -5 -18 -10 -40 -10 -29 0 -40 -4 -40 -15 0 -10 -10 -15
-30 -15 -16 0 -30 -4 -30 -10 0 -5 -11 -10 -25 -10 -14 0 -25 -4 -25 -10 0 -5
-20 -10 -45 -10 -25 0 -45 -4 -45 -10 0 -5 -11 -10 -25 -10 -14 0 -25 -4 -25
-10 0 -5 -16 -10 -35 -10 -19 0 -35 -4 -35 -10 0 -5 -18 -10 -40 -10 -22 0
-40 -4 -40 -10 0 -5 -9 -10 -20 -10 -11 0 -20 -4 -20 -10 0 -5 -9 -10 -20 -10
-11 0 -20 -4 -20 -10 0 -5 -13 -10 -30 -10 -16 0 -30 -4 -30 -10 0 -5 -11 -10
-25 -10 -14 0 -25 -4 -25 -10 0 -5 -11 -10 -25 -10 -15 0 -25 -6 -25 -14 0
-10 -22 -18 -75 -27 -41 -7 -75 -17 -75 -21 0 -4 -9 -8 -20 -8 -11 0 -20 -7
-20 -15 0 -10 -10 -15 -34 -15 -26 0 -36 -5 -41 -20 -3 -11 -13 -20 -21 -20
-8 0 -14 -6 -14 -14 0 -9 -17 -16 -45 -20 -25 -4 -45 -11 -45 -17 0 -5 -7 -9
-15 -9 -8 0 -15 -7 -15 -15 0 -8 -9 -15 -20 -15 -11 0 -20 -4 -20 -9 0 -4 -18
-11 -40 -14 -39 -5 -70 -26 -70 -46 0 -6 -13 -11 -30 -11 -16 0 -30 -4 -30
-10 0 -5 -7 -10 -15 -10 -8 0 -15 -4 -15 -10 0 -5 -9 -10 -20 -10 -11 0 -20
-7 -20 -15 0 -8 -7 -15 -16 -15 -8 0 -22 -7 -30 -15 -9 -8 -24 -15 -35 -15
-10 0 -19 -6 -19 -14 0 -8 -10 -18 -22 -22 -13 -4 -30 -15 -39 -25 -9 -11 -28
-19 -42 -19 -18 0 -26 -7 -31 -24 -4 -17 -15 -26 -36 -31 -16 -4 -30 -11 -30
-16 0 -5 -11 -9 -24 -9 -17 0 -26 -7 -30 -25 -5 -18 -15 -26 -41 -31 -19 -3
-35 -10 -35 -15 0 -5 -7 -9 -15 -9 -8 0 -15 -4 -15 -10 0 -5 -9 -10 -20 -10
-11 0 -20 -4 -20 -10 0 -5 -7 -10 -15 -10 -8 0 -17 -11 -21 -25 -3 -14 -13
-25 -23 -25 -9 0 -23 -9 -31 -20 -8 -11 -20 -20 -27 -20 -7 0 -13 -6 -13 -14
0 -8 -10 -18 -22 -22 -13 -4 -35 -20 -49 -35 -16 -17 -37 -29 -52 -29 -17 0
-28 -7 -32 -20 -3 -11 -10 -20 -15 -20 -4 0 -11 -11 -14 -25 -4 -16 -13 -25
-26 -25 -11 0 -20 -4 -20 -10 0 -5 -7 -10 -16 -10 -9 0 -18 -9 -21 -20 -3 -11
-14 -20 -24 -20 -11 0 -19 -4 -19 -9 0 -5 -13 -12 -29 -16 -20 -4 -31 -14 -35
-30 -5 -18 -15 -26 -41 -31 -26 -5 -37 -13 -41 -30 -3 -13 -12 -24 -20 -24 -8
0 -14 -7 -14 -15 0 -8 -7 -15 -15 -15 -8 0 -15 -7 -15 -15 0 -8 -5 -15 -11
-15 -6 0 -24 -13 -39 -30 -15 -16 -33 -30 -39 -30 -6 0 -11 -5 -11 -11 0 -17
-40 -49 -62 -49 -11 0 -18 -7 -18 -20 0 -11 -6 -20 -14 -20 -8 0 -18 -9 -21
-20 -3 -11 -12 -20 -20 -20 -7 0 -16 -11 -19 -25 -4 -16 -13 -25 -26 -25 -11
0 -20 -4 -20 -10 0 -5 -13 -10 -29 -10 -21 0 -32 6 -36 20 -3 11 -13 20 -21
20 -8 0 -14 10 -14 25 0 14 -6 25 -13 25 -7 0 -19 9 -27 20 -8 11 -18 20 -23
20 -13 0 -57 51 -57 66 0 8 -6 14 -14 14 -8 0 -18 9 -21 20 -3 11 -15 20 -25
20 -11 0 -22 10 -26 23 -7 23 -40 57 -56 57 -4 0 -8 6 -8 13 0 7 -10 19 -21
27 -12 8 -27 21 -35 28 -7 6 -17 12 -23 12 -6 0 -11 7 -11 15 0 8 -8 15 -18
15 -18 0 -52 32 -52 49 0 5 -18 12 -40 16 -26 4 -41 13 -45 26 -4 10 -10 19
-15 19 -4 0 -11 11 -14 25 -4 14 -13 25 -21 25 -8 0 -15 5 -15 10 0 6 -11 10
-25 10 -14 0 -25 4 -25 8 0 14 -45 62 -58 62 -7 0 -12 7 -12 15 0 9 -9 15 -24
15 -16 0 -27 7 -31 20 -3 11 -10 20 -15 20 -4 0 -11 11 -14 25 -4 16 -13 25
-26 25 -11 0 -20 5 -20 10 0 6 -7 10 -15 10 -8 0 -15 5 -15 10 0 6 -7 10 -16
10 -8 0 -22 7 -30 15 -9 8 -26 15 -40 15 -19 0 -24 5 -24 25 0 20 -5 25 -26
25 -14 0 -32 6 -39 13 -33 29 -45 37 -55 37 -5 0 -10 5 -10 11 0 19 -28 39
-53 39 -14 0 -27 7 -31 15 -3 8 -12 15 -21 15 -8 0 -15 7 -15 15 0 8 -14 17
-35 21 -19 3 -35 10 -35 15 0 5 -9 9 -19 9 -12 0 -21 9 -25 25 -4 16 -13 25
-26 25 -11 0 -20 5 -20 10 0 6 -13 10 -30 10 -20 0 -30 5 -30 15 0 8 -9 15
-20 15 -11 0 -20 4 -20 10 0 5 -16 12 -35 16 -19 3 -35 10 -35 15 0 5 -11 9
-25 9 -14 0 -25 5 -25 11 0 18 -27 39 -59 45 -17 4 -31 13 -31 20 0 8 -9 14
-20 14 -11 0 -20 5 -20 10 0 6 -9 10 -20 10 -11 0 -20 5 -20 10 0 6 -9 10 -20
10 -11 0 -20 7 -20 15 0 10 -11 15 -35 15 -19 0 -35 4 -35 9 0 5 -34 15 -75
22 -51 8 -75 16 -75 25 0 8 -9 14 -20 14 -11 0 -20 5 -20 10 0 6 -9 10 -20 10
-11 0 -20 5 -20 10 0 6 -16 10 -35 10 -19 0 -35 5 -35 10 0 6 -9 10 -20 10
-11 0 -20 5 -20 10 0 6 -13 10 -30 10 -16 0 -30 5 -30 10 0 6 -16 10 -35 10
-19 0 -35 5 -35 10 0 6 -18 10 -40 10 -22 0 -40 5 -40 10 0 6 -13 10 -30 10
-16 0 -30 5 -30 10 0 6 -20 10 -45 10 -25 0 -45 5 -45 10 0 6 -9 10 -20 10
-11 0 -20 5 -20 10 0 6 -20 10 -45 10 -33 0 -45 4 -45 15 0 10 -10 15 -30 15
-16 0 -30 5 -30 10 0 6 -28 10 -65 10 -37 0 -65 4 -65 10 0 6 -27 10 -60 10
-33 0 -60 4 -60 10 0 6 -24 10 -54 10 -30 0 -56 4 -58 10 -2 6 -74 13 -170 17
-93 3 -168 10 -168 15 0 4 -187 8 -415 8 -228 0 -415 -4 -415 -9z"/>
</g>
</svg>
